<svg width="20" height="20" viewBox="0 0 20 20" fill="none" xmlns="http://www.w3.org/2000/svg">
<path d="M17.2388 1.98438H15.5317V1.09375C15.5317 0.765852 15.2659 0.5 14.938 0.5C14.6101 0.5 14.3442 0.765852 14.3442 1.09375V1.98438H6.03174V1.09375C6.03174 0.765852 5.76592 0.5 5.43799 0.5C5.11005 0.5 4.84424 0.765852 4.84424 1.09375V1.98438H3.13721C1.78669 1.98438 0.687988 3.08307 0.687988 4.43359V17.0508C0.687988 18.4013 1.78669 19.5 3.13721 19.5H17.2388C18.5893 19.5 19.688 18.4013 19.688 17.0508V4.43359C19.688 3.08307 18.5893 1.98438 17.2388 1.98438ZM3.13721 3.17188H4.84424V3.76562C4.84424 4.09352 5.11005 4.35938 5.43799 4.35938C5.76592 4.35938 6.03174 4.09352 6.03174 3.76562V3.17188H14.3442V3.76562C14.3442 4.09352 14.6101 4.35938 14.938 4.35938C15.2659 4.35938 15.5317 4.09352 15.5317 3.76562V3.17188H17.2388C17.9345 3.17188 18.5005 3.73787 18.5005 4.43359V5.84375H1.87549V4.43359C1.87549 3.73787 2.44148 3.17188 3.13721 3.17188ZM17.2388 18.3125H3.13721C2.44148 18.3125 1.87549 17.7465 1.87549 17.0508V7.03125H18.5005V17.0508C18.5005 17.7465 17.9345 18.3125 17.2388 18.3125Z" fill="#ADC7CF"/>
</svg>
